<?xml version="1.0" standalone="no"?>
<!DOCTYPE svg PUBLIC "-//W3C//DTD SVG 20010904//EN"
 "http://www.w3.org/TR/2001/REC-SVG-20010904/DTD/svg10.dtd">
<svg version="1.0" xmlns="http://www.w3.org/2000/svg"
 width="192.000000pt" height="192.000000pt" viewBox="0 0 192.000000 192.000000"
 preserveAspectRatio="xMidYMid meet">
<metadata>
Created by potrace 1.11, written by Peter Selinger 2001-2013
</metadata>
<g transform="translate(0.000000,192.000000) scale(0.100000,-0.100000)"
fill="#000000" stroke="none">
<path d="M747 1795 c-86 -17 -222 -66 -279 -102 -21 -12 -40 -23 -43 -23 -13
0 -126 -94 -176 -146 -109 -116 -196 -273 -223 -405 -3 -13 -8 -35 -12 -49
-11 -41 -13 -241 -3 -305 16 -100 84 -288 112 -306 5 -3 9 -10 9 -15 3 -34
197 -254 225 -254 6 0 13 -3 15 -7 6 -14 65 -52 130 -83 35 -17 70 -35 79 -39
8 -5 55 -19 105 -32 96 -24 289 -32 389 -16 116 19 288 92 380 161 182 136
295 308 352 531 18 71 25 287 11 347 -5 24 -12 53 -14 66 -15 76 -94 250 -142
312 -52 67 -148 163 -192 193 -25 17 -47 33 -50 36 -29 33 -238 119 -330 136
-79 14 -266 14 -343 0z"/>
</g>
</svg>
